<?xml version="1.0" encoding="UTF-8"?>
<svg width="50px" height="50px" viewBox="0 0 50 50" version="1.1" xmlns="http://www.w3.org/2000/svg" xmlns:xlink="http://www.w3.org/1999/xlink">
    <!-- Generator: Sketch 50 (54983) - http://www.bohemiancoding.com/sketch -->
    <title>logo</title>
    <desc>Created with Sketch.</desc>
    <defs></defs>
    <g id="logo" stroke="none" stroke-width="1" fill="none" fill-rule="evenodd">
        <g id="Group-Copy" transform="translate(0.000000, 7.000000)" fill="#FFFFFF">
            <path d="M30.4895965,5.86630152 L30.4895965,3.33933428 L33.2575199,3.33933428 L32.7462914,7.85195775 L41.2240503,15.3115016 C36.927797,13.8134373 31.5717535,10.9400598 25.1559197,6.69136919 C20.7255094,11.1545181 14.8475143,14.9441325 7.52193437,18.0602123 L24.9386458,0.982043761 L30.4895965,5.86630152 Z M14.0095875,17.2512045 C18.5167369,14.8266029 22.2930184,12.1201804 25.338432,9.13193713 C27.9869261,11.2826593 31.5577603,13.3377986 36.0509344,15.297355 C36.0509344,15.297355 33.4147485,26.1922875 33.4147485,26.1922875 C28.46511,25.2705492 22.2731067,25.2705492 16.8855918,25.8140138 C16.8855918,25.8140138 14.0095875,17.2512045 14.0095875,17.2512045 Z M0,34.3590543 C7.30957789,30.0482445 15.4600764,27.8928395 24.4514954,27.8928395 C33.4429144,27.8928395 41.9590826,30.1334423 50,34.6146477 C40.3796769,32.6564383 31.8635087,31.6773336 24.4514954,31.6773336 C17.039482,31.6773336 8.88898357,32.5712405 0,34.3590543 Z M21.9180275,15.3877358 L21.9180275,17.3061761 L25.1900649,17.3061761 L25.1900649,14.9056824 L21.9180275,15.3877358 Z M29.3002436,15.3877358 L26.0282062,14.9056824 L26.0282062,17.3061761 L29.3002436,17.3061761 L29.3002436,15.3877358 Z M21.9180275,18.1581376 L21.9180275,20.1728065 L25.2032813,20.1728065 L25.2032813,18.1581376 L21.9180275,18.1581376 Z M26.0282062,18.1581376 L26.0282062,20.1728065 L29.31346,20.1728065 L29.31346,18.1581376 L26.0282062,18.1581376 Z" id="Combined-Shape"></path>
        </g>
    </g>
</svg>